<svg xmlns="http://www.w3.org/2000/svg" xmlns:svg="http://www.w3.org/2000/svg" xmlns:xlink="http://www.w3.org/1999/xlink" id="svg9" width="64" height="64" version="1.1" viewBox="0 0 48 48" style="isolation:isolate"><metadata id="metadata15"/><defs id="defs13"><linearGradient id="linearGradient6407"><stop id="stop6403" offset="0" style="stop-color:#4776e6;stop-opacity:1"/><stop id="stop6405" offset="1" style="stop-color:#8e54e9;stop-opacity:1"/></linearGradient><linearGradient id="linearGradient6353" x1="-.008" x2=".951" y1=".06" y2=".972" gradientTransform="matrix(46,0,0,46,1,1)" gradientUnits="userSpaceOnUse"><stop id="stop6347" style="stop-color:#8e54e9;stop-opacity:1" offset="0" stop-opacity="1"/><stop id="stop6351" style="stop-color:#4776e6;stop-opacity:1" offset=".983" stop-opacity="1"/></linearGradient><linearGradient id="linearGradient4804-6" x1="-.008" x2=".951" y1=".06" y2=".972" gradientTransform="matrix(46,0,0,46,1,1)" gradientUnits="userSpaceOnUse"><stop offset="0" stop-opacity="1" style="stop-color:#f9d423;stop-opacity:1" id="stop4800"/><stop offset="98.261" stop-opacity="1" style="stop-color:#c44f00;stop-opacity:1" id="stop4802"/></linearGradient><linearGradient id="linearGradient4788" x1="24.355" x2="30" y1="11.806" y2="17.825" gradientUnits="userSpaceOnUse" xlink:href="#linearGradient6407"/><linearGradient id="linearGradient4790" x1="24.339" x2="30.014" y1="28.521" y2="33.893" gradientUnits="userSpaceOnUse" xlink:href="#linearGradient6407"/><linearGradient id="linearGradient4792" x1="24.355" x2="30" y1="18.021" y2="24" gradientUnits="userSpaceOnUse" xlink:href="#linearGradient6407"/><linearGradient id="linearGradient6341" x1="28.011" x2="28.011" y1="8.25" y2="39.75" gradientUnits="userSpaceOnUse" xlink:href="#linearGradient6353"/><linearGradient id="linearGradient6343" x1="28.011" x2="28.011" y1="8.438" y2="39.562" gradientUnits="userSpaceOnUse" xlink:href="#linearGradient6353"/><linearGradient id="linearGradient6345" x1="28.011" x2="28.011" y1="8.438" y2="39.562" gradientUnits="userSpaceOnUse" xlink:href="#linearGradient6353"/><linearGradient id="linearGradient6399" x1="0" x2="48.75" y1="1.056" y2="48" gradientUnits="userSpaceOnUse" xlink:href="#linearGradient6407"/><linearGradient id="linearGradient6401" x1="0" x2="48.75" y1="-.75" y2="48" gradientUnits="userSpaceOnUse" xlink:href="#linearGradient6407"/><filter style="color-interpolation-filters:sRGB" id="filter850" width="1.105" height="1.014" x="-.053" y="-.007"><feGaussianBlur id="feGaussianBlur852" stdDeviation=".088"/></filter></defs><path id="path23" d="m 43,12.55 v 0 c 0,1.104 0.896,2 2,2 v 0 c 1.104,0 2,-0.896 2,-2 v 0 V 6 C 47,3.24 44.76,1 42,1 H 6 C 3.24,1 1,3.24 1,6 v 19 0 c 0,1.104 0.896,2 2,2 v 0 c 1.104,0 2,-0.896 2,-2 V 25 8 C 5,6.344 6.344,5 8,5 h 32 c 1.656,0 3,1.344 3,3 v 4.55 0 z" style="fill-opacity:1;fill:url(#linearGradient6399)"/></svg>